<svg>
    <symbol id="loupe" width="16" height="16" viewBox="0 0 16 16" fill="none" xmlns="http://www.w3.org/2000/svg">
    <path fill-rule="evenodd" clip-rule="evenodd" d="M11.4601 10.3185L15.7639 14.6223C15.9151 14.7737 16.0001 14.979 16 15.193C15.9999 15.407 15.9148 15.6122 15.7635 15.7635C15.6121 15.9147 15.4068 15.9997 15.1928 15.9996C14.9788 15.9995 14.7736 15.9144 14.6223 15.7631L10.3185 11.4593C9.03194 12.4558 7.41407 12.9247 5.79403 12.7707C4.17398 12.6167 2.67346 11.8513 1.59771 10.6302C0.521957 9.40911 -0.0482098 7.82408 0.00319691 6.19754C0.0546036 4.57101 0.723722 3.02514 1.87443 1.87443C3.02514 0.723722 4.57101 0.0546036 6.19754 0.00319691C7.82408 -0.0482098 9.40911 0.521957 10.6302 1.59771C11.8513 2.67346 12.6167 4.17398 12.7707 5.79403C12.9247 7.41407 12.4558 9.03194 11.4593 10.3185H11.4601ZM6.4003 11.1993C7.67328 11.1993 8.89412 10.6936 9.79425 9.79345C10.6944 8.89332 11.2001 7.67248 11.2001 6.3995C11.2001 5.12652 10.6944 3.90568 9.79425 3.00554C8.89412 2.10541 7.67328 1.59972 6.4003 1.59972C5.12732 1.59972 3.90648 2.10541 3.00634 3.00554C2.10621 3.90568 1.60052 5.12652 1.60052 6.3995C1.60052 7.67248 2.10621 8.89332 3.00634 9.79345C3.90648 10.6936 5.12732 11.1993 6.4003 11.1993Z" fill="#737373"/>
    </symbol>

    <symbol id="cart" width="16" height="15" viewBox="0 0 16 15" fill="none" xmlns="http://www.w3.org/2000/svg">
    <g clip-path="url(#clip0_964_12578)">
    <path d="M5.33327 14.9336C5.92237 14.9336 6.39993 14.4561 6.39993 13.867C6.39993 13.2779 5.92237 12.8003 5.33327 12.8003C4.74416 12.8003 4.2666 13.2779 4.2666 13.867C4.2666 14.4561 4.74416 14.9336 5.33327 14.9336Z" fill="#737373"/>
    <path d="M12.8001 14.9336C13.3892 14.9336 13.8667 14.4561 13.8667 13.867C13.8667 13.2779 13.3892 12.8003 12.8001 12.8003C12.211 12.8003 11.7334 13.2779 11.7334 13.867C11.7334 14.4561 12.211 14.9336 12.8001 14.9336Z" fill="#737373"/>
    <path d="M14.9333 2.66678H3.104L2.66667 0.426775C2.64173 0.304495 2.57471 0.19483 2.47726 0.11687C2.37981 0.0389102 2.25811 -0.00240773 2.13333 0.000108501H0V1.06678H1.696L3.73333 11.3068C3.75827 11.4291 3.82529 11.5387 3.92274 11.6167C4.02019 11.6946 4.1419 11.736 4.26667 11.7334H13.8667V10.6668H4.704L4.26667 8.53344H13.8667C13.99 8.53646 14.1105 8.49665 14.2077 8.4208C14.305 8.34496 14.3729 8.23775 14.4 8.11744L15.4667 3.31744C15.4845 3.23831 15.4841 3.15614 15.4655 3.07719C15.4468 2.99824 15.4103 2.9246 15.3589 2.86185C15.3075 2.79911 15.2424 2.74893 15.1687 2.71512C15.0949 2.68132 15.0144 2.66478 14.9333 2.66678ZM13.44 7.46678H4.064L3.31733 3.73344H14.2667L13.44 7.46678Z" fill="#737373"/>
    </g>
    <defs>
    <clipPath id="clip0_964_12578">
    <rect width="16" height="14.9334" fill="white"/>
    </clipPath>
    </defs>
    </symbol>

    <symbol id="scales" width="51" height="43" viewBox="0 0 51 43" fill="none" xmlns="http://www.w3.org/2000/svg">
    <path d="M27.6609 38.3295H23.3393C23.1468 38.3295 22.9621 38.2538 22.8259 38.1191C22.6898 37.9843 22.6133 37.8015 22.6133 37.6109V2.90171C22.6133 2.14392 22.9174 1.41716 23.4588 0.881311C24.0002 0.345467 24.7345 0.0444336 25.5001 0.0444336C26.2657 0.0444336 27 0.345467 27.5414 0.881311C28.0828 1.41716 28.3869 2.14392 28.3869 2.90171V37.6116C28.3867 37.8021 28.3101 37.9847 28.174 38.1193C28.0379 38.2539 27.8533 38.3295 27.6609 38.3295ZM24.0654 36.8923H26.9348V2.90171C26.9348 2.5251 26.7836 2.16392 26.5146 1.89761C26.2455 1.63131 25.8806 1.4817 25.5001 1.4817C25.1196 1.4817 24.7547 1.63131 24.4856 1.89761C24.2166 2.16392 24.0654 2.5251 24.0654 2.90171V36.8923Z" fill="#295C7A"/>
    <path d="M8.00214 9.6787H5.50957C4.91819 9.6682 4.35462 9.42831 3.94015 9.01065C3.52568 8.593 3.29346 8.03098 3.29346 7.44555C3.29346 6.86013 3.52568 6.2981 3.94015 5.88045C4.35462 5.4628 4.91819 5.2229 5.50957 5.2124H7.64855C7.84111 5.2124 8.02578 5.28812 8.16195 5.42288C8.29811 5.55765 8.37461 5.74044 8.37461 5.93103C8.37461 6.12163 8.29811 6.30441 8.16195 6.43918C8.02578 6.57395 7.84111 6.64967 7.64855 6.64967H5.50957C5.30049 6.65588 5.10208 6.74246 4.95641 6.89104C4.81074 7.03962 4.72927 7.23851 4.72927 7.44555C4.72927 7.65259 4.81074 7.85148 4.95641 8.00006C5.10208 8.14864 5.30049 8.23522 5.50957 8.24144H8.00214C8.1947 8.24144 8.37938 8.31715 8.51554 8.45192C8.6517 8.58669 8.7282 8.76947 8.7282 8.96007C8.7282 9.15066 8.6517 9.33345 8.51554 9.46822C8.37938 9.60299 8.1947 9.6787 8.00214 9.6787Z" fill="#295C7A"/>
    <path d="M23.3394 9.6787H12.394C12.2015 9.6787 12.0168 9.60299 11.8806 9.46822C11.7445 9.33345 11.668 9.15066 11.668 8.96007C11.668 8.76947 11.7445 8.58669 11.8806 8.45192C12.0168 8.31715 12.2015 8.24144 12.394 8.24144H22.6133V6.64967H12.7469C12.5543 6.64967 12.3697 6.57395 12.2335 6.43918C12.0973 6.30441 12.0208 6.12163 12.0208 5.93103C12.0208 5.74044 12.0973 5.55765 12.2335 5.42288C12.3697 5.28812 12.5543 5.2124 12.7469 5.2124H23.3394C23.5319 5.2124 23.7166 5.28812 23.8528 5.42288C23.9889 5.55765 24.0654 5.74044 24.0654 5.93103V8.96007C24.0654 9.15066 23.9889 9.33345 23.8528 9.46822C23.7166 9.60299 23.5319 9.6787 23.3394 9.6787Z" fill="#295C7A"/>
    <path d="M38.4477 9.6787H27.6606C27.4681 9.6787 27.2834 9.60299 27.1472 9.46822C27.0111 9.33345 26.9346 9.15066 26.9346 8.96007V5.93103C26.9346 5.74044 27.0111 5.55765 27.1472 5.42288C27.2834 5.28812 27.4681 5.2124 27.6606 5.2124H38.0948C38.2874 5.2124 38.4721 5.28812 38.6082 5.42288C38.7444 5.55765 38.8209 5.74044 38.8209 5.93103C38.8209 6.12163 38.7444 6.30441 38.6082 6.43918C38.4721 6.57395 38.2874 6.64967 38.0948 6.64967H28.3867V8.24144H38.4477C38.6403 8.24144 38.8249 8.31715 38.9611 8.45192C39.0973 8.58669 39.1738 8.76947 39.1738 8.96007C39.1738 9.15066 39.0973 9.33345 38.9611 9.46822C38.8249 9.60299 38.6403 9.6787 38.4477 9.6787Z" fill="#295C7A"/>
    <path d="M45.4833 9.6787H42.998C42.8055 9.6787 42.6208 9.60299 42.4846 9.46822C42.3485 9.33345 42.272 9.15066 42.272 8.96007C42.272 8.76947 42.3485 8.58669 42.4846 8.45192C42.6208 8.31715 42.8055 8.24144 42.998 8.24144H45.4833C45.6924 8.23522 45.8908 8.14864 46.0365 8.00006C46.1822 7.85148 46.2636 7.65259 46.2636 7.44555C46.2636 7.23851 46.1822 7.03962 46.0365 6.89104C45.8908 6.74246 45.6924 6.65588 45.4833 6.64967H43.356C43.1634 6.64967 42.9787 6.57395 42.8426 6.43918C42.7064 6.30441 42.6299 6.12163 42.6299 5.93103C42.6299 5.74044 42.7064 5.55765 42.8426 5.42288C42.9787 5.28812 43.1634 5.2124 43.356 5.2124H45.4833C46.0747 5.2229 46.6383 5.4628 47.0528 5.88045C47.4672 6.2981 47.6995 6.86013 47.6995 7.44555C47.6995 8.03098 47.4672 8.593 47.0528 9.01065C46.6383 9.42831 46.0747 9.6682 45.4833 9.6787Z" fill="#295C7A"/>
    <path d="M34.6954 42.9546H16.3043C16.1941 42.9546 16.0853 42.9297 15.9863 42.8818C15.8872 42.834 15.8005 42.7645 15.7326 42.6785C15.6648 42.5926 15.6175 42.4925 15.5946 42.3858C15.5716 42.2791 15.5735 42.1687 15.6 42.0628C15.8994 40.6416 16.6703 39.3603 17.7902 38.4227C18.9101 37.4852 20.3146 36.9452 21.7802 36.8887H29.2194C30.6851 36.9452 32.0896 37.4852 33.2095 38.4227C34.3293 39.3603 35.1003 40.6416 35.3997 42.0628C35.4262 42.1687 35.4281 42.2791 35.4051 42.3858C35.3821 42.4925 35.3349 42.5926 35.267 42.6785C35.1992 42.7645 35.1124 42.834 35.0134 42.8818C34.9143 42.9297 34.8056 42.9546 34.6954 42.9546ZM17.3084 41.5174H33.6912C33.3456 40.6094 32.7369 39.8225 31.9415 39.2554C31.146 38.6883 30.1991 38.3663 29.2194 38.3295H21.7802C20.8006 38.3663 19.8537 38.6883 19.0582 39.2554C18.2627 39.8225 17.654 40.6094 17.3084 41.5174Z" fill="#295C7A"/>
    <path d="M36.6618 42.9548H14.3384C14.1458 42.9548 13.9611 42.8791 13.825 42.7444C13.6888 42.6096 13.6123 42.4268 13.6123 42.2362C13.6123 42.0456 13.6888 41.8628 13.825 41.7281C13.9611 41.5933 14.1458 41.5176 14.3384 41.5176H36.6618C36.8543 41.5176 37.039 41.5933 37.1752 41.7281C37.3113 41.8628 37.3878 42.0456 37.3878 42.2362C37.3878 42.4268 37.3113 42.6096 37.1752 42.7444C37.039 42.8791 36.8543 42.9548 36.6618 42.9548Z" fill="#295C7A"/>
    <path d="M50.186 27.6973H31.4238C31.3023 27.6974 31.1827 27.6673 31.076 27.6098C30.9692 27.5522 30.8788 27.469 30.813 27.3679C30.7471 27.2668 30.708 27.1509 30.6992 27.0309C30.6904 26.911 30.7121 26.7907 30.7624 26.6812L38.7345 9.30901C38.7738 9.22283 38.8299 9.14516 38.8995 9.08045C38.9691 9.01574 39.051 8.96527 39.1404 8.93193C39.2297 8.89858 39.3249 8.88302 39.4203 8.88613C39.5158 8.88924 39.6097 8.91097 39.6967 8.95006C39.7836 8.98915 39.862 9.04484 39.9271 9.11394C39.9923 9.18304 40.0431 9.26419 40.0765 9.35274C40.11 9.4413 40.1254 9.53551 40.122 9.62999C40.1186 9.72447 40.0964 9.81735 40.0567 9.90332L32.5507 26.2601H49.0562L41.5567 9.90332C41.5174 9.81735 41.4955 9.72454 41.4923 9.63019C41.4892 9.53585 41.5049 9.44182 41.5384 9.35347C41.572 9.26511 41.6228 9.18417 41.688 9.11526C41.7532 9.04635 41.8315 8.99083 41.9183 8.95185C42.0052 8.91288 42.0989 8.89122 42.1943 8.88811C42.2896 8.885 42.3846 8.9005 42.4739 8.93374C42.5631 8.96697 42.6449 9.01728 42.7145 9.08179C42.7841 9.1463 42.8402 9.22376 42.8796 9.30973L50.8438 26.6819C50.8938 26.7911 50.9154 26.911 50.9067 27.0306C50.898 27.1501 50.8591 27.2657 50.7937 27.3666C50.7283 27.4675 50.6385 27.5507 50.5323 27.6085C50.4262 27.6662 50.3071 27.6968 50.186 27.6973Z" fill="#295C7A"/>
    <path d="M40.8793 36.8635H40.7282C34.9147 36.8635 30.6948 32.7069 30.6948 26.9794C30.6948 26.7888 30.7713 26.606 30.9075 26.4712C31.0436 26.3365 31.2283 26.2607 31.4209 26.2607H50.1859C50.3784 26.2607 50.5631 26.3365 50.6993 26.4712C50.8354 26.606 50.9119 26.7888 50.9119 26.9794C50.9119 32.7105 46.6921 36.8635 40.8793 36.8635ZM32.1724 27.698C32.4962 32.2843 35.9224 35.4262 40.7282 35.4262H40.8793C45.6843 35.4262 49.1113 32.2843 49.4344 27.698H32.1724Z" fill="#295C7A"/>
    <path d="M40.8039 10.7033C40.0979 10.7034 39.4077 10.4963 38.8206 10.1082C38.2336 9.72006 37.776 9.16833 37.5057 8.52276C37.2355 7.8772 37.1647 7.16681 37.3024 6.48145C37.4401 5.79609 37.7801 5.16654 38.2793 4.67243C38.7785 4.17831 39.4146 3.84183 40.107 3.70554C40.7995 3.56925 41.5172 3.63927 42.1694 3.90675C42.8217 4.17423 43.3791 4.62715 43.7712 5.20822C44.1634 5.7893 44.3726 6.47243 44.3725 7.17121C44.3713 8.10762 43.995 9.00536 43.326 9.6675C42.657 10.3296 41.75 10.7021 40.8039 10.7033ZM40.8039 5.07568C40.3851 5.07554 39.9757 5.19832 39.6275 5.42849C39.2792 5.65866 39.0077 5.98589 38.8474 6.36879C38.687 6.75168 38.645 7.17304 38.7266 7.57959C38.8082 7.98613 39.0098 8.35958 39.3059 8.65272C39.6019 8.94585 39.9792 9.1455 40.3899 9.22642C40.8006 9.30733 41.2263 9.26588 41.6132 9.10729C42.0001 8.94871 42.3308 8.68012 42.5635 8.3355C42.7962 7.99087 42.9204 7.5857 42.9204 7.17121C42.9198 6.61574 42.6966 6.08317 42.2999 5.69033C41.9031 5.29748 41.3651 5.07644 40.8039 5.07568Z" fill="#295C7A"/>
    <path d="M19.5751 27.6974H0.813749C0.692267 27.6974 0.572735 27.6671 0.466102 27.6095C0.359469 27.5519 0.269145 27.4688 0.203401 27.3677C0.137658 27.2666 0.0985973 27.1507 0.089798 27.0308C0.0809986 26.9109 0.102741 26.7907 0.153035 26.6812L8.12662 9.30905C8.20624 9.13542 8.35229 9.00021 8.53264 8.93317C8.71299 8.86612 8.91286 8.87273 9.08828 8.95154C9.26371 9.03035 9.40032 9.1749 9.46806 9.3534C9.5358 9.53191 9.52912 9.72973 9.4495 9.90336L1.9435 26.2601H18.449L10.9495 9.90336C10.9078 9.81712 10.8839 9.7235 10.8793 9.628C10.8746 9.5325 10.8892 9.43704 10.9222 9.3472C10.9553 9.25736 11.0062 9.17495 11.0718 9.10481C11.1374 9.03466 11.2166 8.97819 11.3045 8.93869C11.3925 8.8992 11.4876 8.87747 11.5841 8.87479C11.6807 8.87212 11.7768 8.88854 11.8669 8.9231C11.957 8.95765 12.0392 9.00965 12.1087 9.07605C12.1782 9.14245 12.2336 9.22191 12.2717 9.30977L20.2366 26.682C20.2867 26.7914 20.3083 26.9116 20.2994 27.0315C20.2905 27.1514 20.2514 27.2671 20.1855 27.3682C20.1197 27.4692 20.0294 27.5523 19.9227 27.6098C19.8161 27.6673 19.6966 27.6974 19.5751 27.6974Z" fill="#295C7A"/>
    <path d="M10.2716 36.8635H10.1206C4.30775 36.8635 0.0878906 32.7105 0.0878906 26.9794C0.0878906 26.7888 0.164386 26.606 0.300548 26.4712C0.436711 26.3365 0.621387 26.2607 0.81395 26.2607H19.579C19.7715 26.2607 19.9562 26.3365 20.0924 26.4712C20.2285 26.606 20.305 26.7888 20.305 26.9794C20.305 32.7105 16.0852 36.8635 10.2716 36.8635ZM1.56542 27.698C1.88852 32.2843 5.31552 35.4262 10.1206 35.4262H10.2716C15.0774 35.4262 18.5037 32.2843 18.8275 27.698H1.56542Z" fill="#295C7A"/>
    <path d="M10.1963 10.7033C9.49029 10.7033 8.80017 10.4961 8.21319 10.1078C7.6262 9.71963 7.16871 9.16784 6.89858 8.52226C6.62845 7.87669 6.55781 7.16633 6.69559 6.48101C6.83337 5.7957 7.17339 5.16621 7.67264 4.67217C8.17189 4.17813 8.80794 3.84172 9.50037 3.70549C10.1928 3.56926 10.9105 3.63932 11.5627 3.90682C12.2149 4.17432 12.7723 4.62724 13.1644 5.2083C13.5565 5.78936 13.7657 6.47246 13.7656 7.17121C13.7644 8.10775 13.388 9.00559 12.7188 9.66775C12.0497 10.3299 11.1425 10.7023 10.1963 10.7033ZM10.1963 5.07568C9.77752 5.07568 9.36819 5.19858 9.02002 5.42884C8.67185 5.6591 8.40048 5.98638 8.24023 6.36928C8.07999 6.75219 8.03806 7.17353 8.11975 7.58003C8.20145 7.98652 8.40309 8.35991 8.69918 8.65297C8.99528 8.94604 9.37253 9.14562 9.78322 9.22647C10.1939 9.30733 10.6196 9.26583 11.0065 9.10723C11.3933 8.94862 11.724 8.68003 11.9566 8.33542C12.1893 7.99081 12.3135 7.58567 12.3135 7.17121C12.3129 6.61561 12.0896 6.08294 11.6927 5.69008C11.2958 5.29721 10.7576 5.07625 10.1963 5.07568Z" fill="#295C7A"/>
    </symbol>

    <symbol id="hammer" width="53" height="53" viewBox="0 0 53 53" fill="none" xmlns="http://www.w3.org/2000/svg">
    <g clip-path="url(#clip0_1081_491)">
    <path d="M12.1915 18.0474C11.7878 17.6437 11.1315 17.6437 10.7279 18.0474C10.3231 18.4522 10.3231 19.1074 10.7279 19.5111C11.1316 19.9159 11.7879 19.9159 12.1915 19.5111C12.5961 19.1074 12.5961 18.4522 12.1915 18.0474Z" fill="white"/>
    <path d="M26.2101 46.3452C26.6665 45.727 26.9131 44.9822 26.9131 44.1991C26.9131 42.2015 25.2879 40.5762 23.2902 40.5762H5.69315C4.72497 40.5762 3.81517 40.953 3.13124 41.6371C2.44701 42.3211 2.07021 43.2309 2.07021 44.1991C2.07021 45.0013 2.33272 45.7431 2.77567 46.344C1.12739 47.2106 0 48.9393 0 50.9273V51.9625C0 52.5342 0.463543 52.9976 1.03516 52.9976H27.9482C28.5198 52.9976 28.9833 52.5342 28.9833 51.9625V50.9273C28.9833 48.9402 27.8571 47.2122 26.2101 46.3452ZM4.59506 43.1008C4.88811 42.8077 5.27816 42.6463 5.69315 42.6463H23.2902C24.1464 42.6463 24.8428 43.3428 24.8428 44.1989C24.8428 44.614 24.6813 45.0039 24.3882 45.2971C24.0951 45.5903 23.7051 45.7516 23.2901 45.7516H5.69315C4.83697 45.7516 4.14052 45.0551 4.14052 44.199C4.14052 43.784 4.3019 43.394 4.59506 43.1008ZM2.07021 50.9273C2.07021 49.2151 3.46332 47.822 5.17557 47.822H5.69315H23.2902H23.8078C25.52 47.822 26.9131 49.2151 26.9131 50.9273H2.07021Z" fill="white"/>
    <path d="M52.0398 43.4893C51.6882 42.9445 51.2688 42.4627 50.7929 42.0574L45.9562 37.8388C45.9185 37.7821 45.8748 37.7282 45.8248 37.6782C45.7407 37.5943 45.6455 37.5288 45.5443 37.4797L42.6192 34.9286L29.0804 23.1184C29.6346 22.539 29.9398 21.7813 29.9398 20.9757C29.9398 20.1457 29.6167 19.3657 29.0295 18.7786C28.7734 18.5228 28.4823 18.3216 28.1712 18.1743L29.4238 16.9218C29.7739 17.0149 30.1336 17.0625 30.4936 17.0625C31.5537 17.0624 32.6139 16.6589 33.4209 15.8519C34.2033 15.0696 34.6341 14.0298 34.6341 12.9239C34.6341 11.8181 34.2033 10.7783 33.421 9.99599L24.6379 1.2131C23.8557 0.430832 22.8158 0 21.7096 0C20.6039 0 19.5643 0.430832 18.7822 1.2131C17.7011 2.29422 17.3452 3.82925 17.7122 5.21036L5.21531 17.7072C4.86998 17.6154 4.51068 17.5669 4.14362 17.5669C3.03724 17.5669 1.99784 17.9974 1.21619 18.779C-0.398236 20.3934 -0.398236 23.0203 1.21619 24.6349L9.99918 33.4179C10.8065 34.2252 11.8668 34.6288 12.9271 34.6288C13.9875 34.6288 15.0478 34.2252 15.8552 33.4179C16.9363 32.3367 17.2922 30.8018 16.9251 29.4207L18.1751 28.1706C18.3253 28.4843 18.5291 28.7737 18.7823 29.0268C19.3688 29.6133 20.1486 29.9364 20.9784 29.9364C21.7832 29.9364 22.5405 29.6318 23.1207 29.0782L37.5411 45.6462C37.5808 45.7084 37.6272 45.7675 37.6814 45.8217C37.7 45.8402 37.7196 45.8571 37.7392 45.8739L42.0362 50.811C42.1431 50.937 42.2572 51.0611 42.3758 51.1796C43.5559 52.3593 45.1148 52.9996 46.7514 52.9996C47.0399 52.9996 47.3311 52.9797 47.6227 52.9393C49.5718 52.6696 51.2563 51.5036 52.244 49.7399C53.3261 47.8069 53.2455 45.3529 52.0398 43.4893ZM20.2462 2.67702C20.6374 2.28583 21.1572 2.07031 21.7097 2.07031C22.2629 2.07031 22.7831 2.28583 23.1741 2.67702L31.9572 11.46C32.3484 11.8512 32.5638 12.3712 32.5638 12.924C32.5638 13.4769 32.3484 13.9969 31.9571 14.388C31.1502 15.1952 29.837 15.1952 29.0301 14.388L20.2467 5.60465C20.2465 5.60444 20.2464 5.60434 20.2462 5.60413C19.4391 4.79712 19.4391 3.48403 20.2462 2.67702ZM14.3912 31.954C13.584 32.7612 12.2703 32.7613 11.4631 31.954L2.68011 23.171C1.87279 22.3637 1.87279 21.0503 2.68011 20.2429C3.07057 19.8523 3.59043 19.6372 4.14362 19.6372C4.6967 19.6372 5.21624 19.8522 5.6066 20.2425L14.3911 29.027C15.1984 29.8339 15.1984 31.1471 14.3912 31.954ZM18.7495 24.6686L15.8551 27.5631L7.07114 18.7792L18.7822 7.06794L27.566 15.8519L24.6663 18.7516C24.6569 18.7605 24.6477 18.7692 24.6377 18.7791L18.7852 24.6318C18.7731 24.6437 18.7614 24.6561 18.7495 24.6686ZM22.4456 26.828C22.4435 26.8301 22.4416 26.8321 22.4395 26.8341L21.7105 27.5631C21.515 27.7585 21.2551 27.8662 20.9783 27.8662C20.7016 27.8662 20.4415 27.7585 20.2461 27.563C20.0503 27.3674 19.9426 27.1071 19.9426 26.8302C19.9426 26.5592 20.046 26.3043 20.2337 26.1119L26.1135 20.2321C26.5164 19.8402 27.168 19.8451 27.5662 20.2429C27.7618 20.4385 27.8696 20.6988 27.8696 20.9757C27.8696 21.2524 27.7622 21.5119 27.5661 21.7074L26.8414 22.4321C26.8364 22.437 26.8314 22.442 26.8266 22.4469L22.4456 26.828ZM24.5892 27.6122L27.6145 24.5868L40.4238 35.7598L35.7496 40.434L24.5892 27.6122ZM37.112 41.9994L41.9875 37.1238L43.5513 38.4878L38.4744 43.5649L37.112 41.9994ZM50.4378 48.7285C49.7697 49.9213 48.6402 50.7086 47.3389 50.8887C46.0406 51.0684 44.765 50.6408 43.8394 49.7156C43.7598 49.6361 43.6836 49.5531 43.6126 49.4691C43.6093 49.4651 43.6059 49.4612 43.6025 49.4574L39.8366 45.1302L45.115 39.8518L49.4368 43.6215C49.44 43.6244 49.4433 43.6272 49.4467 43.6301C49.7702 43.9051 50.0572 44.2354 50.3008 44.6129C51.0836 45.8224 51.1385 47.4766 50.4378 48.7285Z" fill="white"/>
    <path d="M19.5116 10.7275C19.1073 10.3233 18.452 10.3233 18.0477 10.7275L13.6557 15.1194C13.2515 15.5237 13.2515 16.1791 13.6557 16.5833C13.8579 16.7854 14.1228 16.8865 14.3877 16.8865C14.6526 16.8865 14.9175 16.7853 15.1196 16.5833L19.5116 12.1913C19.9158 11.7872 19.9158 11.1318 19.5116 10.7275Z" fill="white"/>
    </g>
    <defs>
    <clipPath id="clip0_1081_491">
    <rect width="53" height="53" fill="white"/>
    </clipPath>
    </defs>
    </symbol>

    <symbol id="tab" width="53" height="53" viewBox="0 0 53 53" fill="none" xmlns="http://www.w3.org/2000/svg">
    <g clip-path="url(#clip0_1081_505)">
    <path d="M19.2896 12.4766H11.5962C10.8842 12.4766 10.3071 13.0536 10.3071 13.7656C10.3071 14.4776 10.8842 15.0547 11.5962 15.0547H19.2896C20.0013 15.0547 20.5787 14.4776 20.5787 13.7656C20.5787 13.0536 20.0013 12.4766 19.2896 12.4766Z" fill="#295C7A"/>
    <path d="M19.2896 17.6333H11.5962C10.8842 17.6333 10.3071 18.2104 10.3071 18.9224C10.3071 19.6344 10.8842 20.2114 11.5962 20.2114H19.2896C20.0013 20.2114 20.5787 19.6344 20.5787 18.9224C20.5787 18.2104 20.0013 17.6333 19.2896 17.6333Z" fill="#295C7A"/>
    <path d="M19.2896 22.7896H11.5962C10.8842 22.7896 10.3071 23.3666 10.3071 24.0786C10.3071 24.7906 10.8842 25.3677 11.5962 25.3677H19.2896C20.0013 25.3677 20.5787 24.7906 20.5787 24.0786C20.5787 23.3666 20.0013 22.7896 19.2896 22.7896Z" fill="#295C7A"/>
    <path d="M19.2896 27.9463H11.5962C10.8842 27.9463 10.3071 28.5233 10.3071 29.2354C10.3071 29.9474 10.8842 30.5244 11.5962 30.5244H19.2896C20.0013 30.5244 20.5787 29.9474 20.5787 29.2354C20.5787 28.5233 20.0013 27.9463 19.2896 27.9463Z" fill="#295C7A"/>
    <path d="M19.2896 33.189H11.5962C10.8842 33.189 10.3071 33.7664 10.3071 34.478C10.3071 35.19 10.8842 35.7671 11.5962 35.7671H19.2896C20.0013 35.7671 20.5787 35.19 20.5787 34.478C20.5787 33.7664 20.0013 33.189 19.2896 33.189Z" fill="#295C7A"/>
    <path d="M23.6187 15.0547H31.3121C32.0241 15.0547 32.6011 14.4776 32.6011 13.7656C32.6011 13.0536 32.0241 12.4766 31.3121 12.4766H23.6187C22.907 12.4766 22.3296 13.0536 22.3296 13.7656C22.3296 14.4776 22.907 15.0547 23.6187 15.0547Z" fill="#295C7A"/>
    <path d="M23.6187 20.2114H31.3121C32.0241 20.2114 32.6011 19.6344 32.6011 18.9224C32.6011 18.2104 32.0241 17.6333 31.3121 17.6333H23.6187C22.907 17.6333 22.3296 18.2104 22.3296 18.9224C22.3296 19.6344 22.907 20.2114 23.6187 20.2114Z" fill="#295C7A"/>
    <path d="M28.6131 24.0786C28.6131 23.3666 28.036 22.7896 27.324 22.7896H23.6187C22.907 22.7896 22.3296 23.3666 22.3296 24.0786C22.3296 24.7906 22.907 25.3677 23.6187 25.3677H27.324C28.036 25.3677 28.6131 24.7906 28.6131 24.0786Z" fill="#295C7A"/>
    <path d="M40.8248 33.7333C40.2696 33.2879 39.4586 33.3768 39.0127 33.9321L35.6927 38.0712L33.6373 36.582C33.0609 36.1641 32.2546 36.293 31.837 36.8694C31.4194 37.4461 31.5483 38.2521 32.1246 38.6697L35.1738 40.8789C35.402 41.0441 35.6666 41.1243 35.9294 41.1243C36.3077 41.1243 36.6817 40.9581 36.9355 40.6416L41.0239 35.5454C41.4694 34.9902 41.3804 34.1788 40.8248 33.7333Z" fill="#295C7A"/>
    <path d="M44.0831 29.7762C42.404 28.0675 40.2465 26.9906 37.9087 26.6734V9.1915C37.9087 6.32904 35.5797 4 32.7172 4H10.1918C7.32904 4 5 6.32904 5 9.1915V39.0524C5 41.9152 7.32904 44.2443 10.1915 44.2443H28.3085C30.3472 46.6391 33.2785 48 36.4498 48C42.3529 48 47.1554 43.1942 47.1554 37.287C47.1554 34.4591 46.0644 31.7917 44.0831 29.7762ZM7.57812 39.0524V9.1915C7.57812 7.7507 8.7507 6.57812 10.1918 6.57812H32.7172C34.1583 6.57812 35.3306 7.7507 35.3306 9.1915V26.6324C29.9514 27.1941 25.7442 31.7578 25.7442 37.287C25.7442 38.8195 26.0638 40.3012 26.6767 41.6658H10.1918C8.7507 41.6658 7.57812 40.4936 7.57812 39.0524ZM36.4498 45.4219C33.8753 45.4219 31.5087 44.2399 29.9561 42.1794C28.8873 40.7604 28.322 39.0689 28.322 37.287C28.322 32.8015 31.9683 29.1522 36.4498 29.1522C36.4921 29.1522 36.5347 29.1528 36.577 29.1535L36.5968 29.1538C38.7362 29.1918 40.7419 30.0545 42.2445 31.5833C43.7487 33.1137 44.5772 35.1396 44.5772 37.287C44.5772 41.7726 40.9313 45.4219 36.4498 45.4219Z" fill="#295C7A"/>
    </g>
    <defs>
    <clipPath id="clip0_1081_505">
    <rect width="42.1953" height="44" fill="white" transform="translate(5 4)"/>
    </clipPath>
    </defs>
    </symbol>

    <symbol id="people" width="30" height="30" viewBox="0 0 30 30" fill="none" xmlns="http://www.w3.org/2000/svg">
    <path fill-rule="evenodd" clip-rule="evenodd" d="M17.2367 7.77151C16.7729 8.09308 16.2497 8.31905 15.6976 8.43623C15.1456 8.55342 14.5757 8.55949 14.0212 8.45407C13.4668 8.34865 12.9389 8.13385 12.4684 7.82223C11.9979 7.5106 11.5941 7.10838 11.2807 6.63904C10.9673 6.1697 10.7505 5.64263 10.643 5.08861C10.5354 4.53458 10.5393 3.96468 10.6544 3.41218C10.7695 2.85967 10.9935 2.33562 11.3133 1.8706C11.6331 1.40559 12.0423 1.00893 12.517 0.703761C13.4544 0.0846608 14.5986 -0.138187 15.6998 0.0839308C16.8009 0.306048 17.7693 0.955065 18.3933 1.88911C19.0173 2.82315 19.2462 3.96625 19.0298 5.06853C18.8135 6.17081 18.1696 7.14262 17.2388 7.77151H17.2367ZM16.0573 2.47176C15.8259 2.30528 15.5633 2.18706 15.2853 2.12415C15.0072 2.06124 14.7193 2.05493 14.4388 2.10558C14.1583 2.15622 13.8908 2.26281 13.6523 2.41897C13.4138 2.57514 13.2091 2.7777 13.0505 3.0146C12.8919 3.25149 12.7826 3.51788 12.7291 3.79789C12.6756 4.07791 12.679 4.36583 12.739 4.64451C12.7991 4.92319 12.9146 5.18694 13.0788 5.42004C13.2429 5.65315 13.4522 5.85086 13.6943 6.00139C14.162 6.28552 14.7214 6.37824 15.2558 6.26023C15.7902 6.14222 16.2585 5.82258 16.563 5.36789C16.8676 4.9132 16.985 4.35852 16.8908 3.81941C16.7966 3.2803 16.498 2.79833 16.0573 2.47389V2.47176ZM21.6036 2.53551C22.2164 2.12326 22.9539 1.93762 23.6889 2.01054C24.4239 2.08346 25.1105 2.41038 25.6304 2.93501C26.0009 3.30848 26.2741 3.76715 26.426 4.27079C26.578 4.77443 26.604 5.30766 26.5018 5.82371C26.3997 6.33975 26.1724 6.82284 25.8401 7.23061C25.5077 7.63838 25.0804 7.95837 24.5956 8.16251C24.0133 8.40598 23.3715 8.47011 22.7526 8.34669C22.1336 8.22328 21.5656 7.91794 21.1212 7.46976C20.7872 7.13405 20.5315 6.72865 20.3725 6.28259C20.2135 5.83653 20.155 5.36083 20.2013 4.88954C20.2476 4.41825 20.3975 3.96302 20.6403 3.55643C20.8831 3.14984 21.2127 2.80194 21.6057 2.53764L21.6036 2.53551ZM22.6236 5.95676C22.8231 6.15543 23.0933 6.2667 23.3749 6.2661C23.5143 6.2658 23.6523 6.23805 23.7809 6.18443C23.9096 6.13081 24.0265 6.05236 24.1249 5.95357C24.2232 5.85479 24.3012 5.73759 24.3543 5.60868C24.4073 5.47977 24.4345 5.34167 24.4342 5.20226C24.4339 5.06285 24.4062 4.92486 24.3525 4.79618C24.2989 4.66749 24.2205 4.55063 24.1217 4.45226C23.9238 4.25328 23.6564 4.13899 23.3758 4.13351C23.2357 4.13323 23.0968 4.16073 22.9674 4.21442C22.8379 4.26811 22.7204 4.34694 22.6216 4.44633C22.5228 4.54573 22.4447 4.66372 22.3918 4.7935C22.3388 4.92327 22.3122 5.06224 22.3133 5.20239C22.314 5.48539 22.4253 5.7569 22.6236 5.95889V5.95676ZM4.65455 24.3975H8.5008V26.5331H4.65455C3.98123 26.5271 3.3378 26.2542 2.8653 25.7745C2.39099 25.293 2.12533 24.6441 2.1258 23.9683V20.122C1.8397 20.1124 1.5585 20.045 1.29919 19.9237C1.03988 19.8025 0.807827 19.6299 0.61705 19.4165C0.414334 19.2112 0.255241 18.967 0.149338 18.6985C0.0434344 18.4301 -0.00709083 18.1431 0.000800442 17.8546V13.2179C0.00717544 12.2149 0.40455 11.2565 1.1058 10.5446C1.80493 9.84126 2.75055 9.43964 3.7408 9.43326H7.6508C7.1234 10.0614 6.72612 10.788 6.48205 11.571H3.7408C3.30951 11.5834 2.89915 11.7597 2.5933 12.064C2.29287 12.3729 2.1251 12.787 2.1258 13.2179V17.9609H4.2508V23.9661C4.24587 24.024 4.25275 24.0823 4.27101 24.1375C4.28928 24.1926 4.31855 24.2435 4.35705 24.287C4.44247 24.353 4.54664 24.3902 4.65455 24.3933V24.3975ZM20.167 10.5468C19.8193 10.1957 19.4057 9.91675 18.9498 9.72602C18.494 9.53529 18.0049 9.43653 17.5108 9.43539H12.2408C11.2502 9.44331 10.3029 9.84284 9.6058 10.5468C8.90455 11.2586 8.50718 12.217 8.5008 13.22V19.9733C8.4978 20.5531 8.71853 21.1118 9.11705 21.533C9.30806 21.7462 9.54016 21.9185 9.79943 22.0397C10.0587 22.161 10.3398 22.2286 10.6258 22.2385V27.1749C10.6238 27.5118 10.6885 27.8458 10.8161 28.1576C10.9438 28.4695 11.1319 28.7529 11.3696 28.9918C11.7521 29.3488 12.2344 29.5804 12.7508 29.6548H17.0008C17.5985 29.5763 18.1461 29.2797 18.5384 28.8219C18.9306 28.3642 19.1398 27.7776 19.1258 27.1749V22.2364C19.4119 22.2268 19.6931 22.1594 19.9524 22.0381C20.2117 21.9169 20.4438 21.7443 20.6346 21.5309C20.8371 21.3259 20.9961 21.082 21.102 20.814C21.2079 20.5459 21.2585 20.2592 21.2508 19.9711V13.2179C21.2523 12.2195 20.8633 11.2601 20.167 10.5446V10.5468ZM19.1258 20.0774H17.0008V27.1749C16.9987 27.2869 16.953 27.3937 16.8733 27.4724C16.837 27.5153 16.7913 27.5492 16.7396 27.5713C16.688 27.5935 16.6319 27.6032 16.5758 27.5999H13.1546C13.0435 27.5947 12.9384 27.5483 12.8598 27.4697C12.7812 27.3911 12.7347 27.2859 12.7296 27.1749V20.0774H10.6258V13.2179C10.6258 12.7865 10.7937 12.3721 11.0933 12.064C11.3992 11.7597 11.8095 11.5834 12.2408 11.571H17.5108C17.8327 11.5767 18.146 11.6762 18.4121 11.8574C18.6782 12.0386 18.8857 12.2936 19.0089 12.591C19.0898 12.7899 19.1296 13.0032 19.1258 13.2179V20.0774ZM25.0971 26.531H21.2508V24.3954H25.0758C25.1837 24.3924 25.2879 24.3552 25.3733 24.2891C25.4161 24.2473 25.4496 24.1969 25.4715 24.1413C25.4935 24.0856 25.5035 24.0259 25.5008 23.9661V17.9609H27.6258V13.2179C27.6265 12.787 27.4587 12.3729 27.1583 12.064C26.8524 11.7597 26.4421 11.5834 26.0108 11.571H23.2696C23.0256 10.788 22.6283 10.0613 22.1008 9.43326H26.0108C27.0012 9.44234 27.9481 9.84169 28.6458 10.5446C29.347 11.2565 29.7444 12.2149 29.7508 13.2179V17.8546C29.7508 18.4348 29.5319 18.9915 29.1367 19.4123C28.7414 19.8351 28.2017 20.088 27.6258 20.1199V23.9661C27.6258 24.644 27.3602 25.2921 26.8863 25.7724C26.4138 26.2521 25.7704 26.5249 25.0971 26.531ZM6.3758 1.99576C5.74346 1.99503 5.12531 2.18314 4.60057 2.536C4.07583 2.88885 3.66842 3.39037 3.43055 3.97626C3.19049 4.56195 3.12817 5.20536 3.25136 5.82623C3.37456 6.4471 3.67781 7.01797 4.1233 7.46764C4.56863 7.91678 5.13774 8.22298 5.75793 8.34712C6.37812 8.47126 7.02124 8.4077 7.60514 8.16456C8.18903 7.92142 8.68719 7.50975 9.03598 6.98212C9.38478 6.45449 9.56837 5.83486 9.5633 5.20239C9.5633 4.35239 9.22755 3.53639 8.6283 2.93501C8.33323 2.63779 7.98233 2.40181 7.59577 2.24063C7.20921 2.07944 6.79462 1.99622 6.3758 1.99576ZM6.3758 6.27126C6.23565 6.27155 6.09684 6.24405 5.96739 6.19035C5.83793 6.13666 5.72041 6.05784 5.6216 5.95844C5.5228 5.85905 5.44468 5.74105 5.39176 5.61128C5.33885 5.48151 5.31218 5.34253 5.3133 5.20239C5.31385 4.92017 5.42577 4.64959 5.62473 4.44944C5.82368 4.24928 6.0936 4.13575 6.3758 4.13351C6.65714 4.13847 6.92548 4.25287 7.12386 4.45244C7.32223 4.652 7.43503 4.92102 7.4383 5.20239C7.43775 5.4846 7.32583 5.75519 7.12688 5.95534C6.92792 6.15549 6.658 6.26902 6.3758 6.27126Z" fill="#D0A144"/>
    </symbol>

    <symbol id="speed" width="32" height="26" viewBox="0 0 32 26" fill="none" xmlns="http://www.w3.org/2000/svg">
    <path d="M29.8154 7.36456L27.8167 10.3708C28.7806 12.2933 29.2525 14.4249 29.1901 16.5746C29.1277 18.7243 28.5329 20.825 27.4592 22.6883H4.93666C3.54106 20.2672 2.96277 17.4609 3.28751 14.6853C3.61226 11.9097 4.82277 9.31265 6.73956 7.27913C8.65636 5.2456 11.1774 3.88388 13.929 3.39581C16.6806 2.90775 19.5162 3.31934 22.0154 4.56956L25.0217 2.57081C21.9609 0.608159 18.3304 -0.27131 14.7109 0.0730789C11.0913 0.417467 7.69176 1.96581 5.05609 4.47045C2.42042 6.97509 0.700875 10.2913 0.172515 13.8886C-0.355844 17.486 0.337506 21.1566 2.14166 24.3133C2.42524 24.8045 2.83243 25.2129 3.32276 25.498C3.81309 25.7831 4.36949 25.9349 4.93666 25.9383H27.4429C28.0156 25.9406 28.5787 25.7915 29.0752 25.5061C29.5718 25.2208 29.9841 24.8093 30.2704 24.3133C31.7676 21.7197 32.519 18.7627 32.4416 15.769C32.3642 12.7752 31.461 9.86108 29.8317 7.34831L29.8154 7.36456ZM13.9067 18.4796C14.2085 18.7817 14.5669 19.0214 14.9615 19.185C15.356 19.3486 15.7789 19.4327 16.206 19.4327C16.6331 19.4327 17.056 19.3486 17.4506 19.185C17.8451 19.0214 18.2036 18.7817 18.5054 18.4796L27.7029 4.68331L13.9067 13.8808C13.6045 14.1826 13.3648 14.5411 13.2012 14.9356C13.0377 15.3302 12.9535 15.7531 12.9535 16.1802C12.9535 16.6073 13.0377 17.0302 13.2012 17.4247C13.3648 17.8193 13.6045 18.1777 13.9067 18.4796V18.4796Z" fill="#D0A144"/>
    </symbol>

    <symbol id="logo1" width="103" height="35" viewBox="0 0 103 35" fill="none" xmlns="http://www.w3.org/2000/svg">
    <path d="M23.2553 32.4249L29.4193 32.5526C27.2949 31.8183 25.2349 30.9244 23.2553 29.8709V32.4249ZM32.5414 31.5789V32.4249L29.4193 32.5526C35.2935 34.5479 40.6688 34.8193 44.66 33.7019C41.4574 33.7338 37.2891 33.2869 32.5414 31.5789ZM98.3488 13.1901C100.908 13.1901 103 11.131 103 8.577C103 6.02301 100.924 4.6662 98.3488 4.6662C95.7899 4.6662 93.6977 6.03897 93.6977 8.577C93.6977 11.115 95.7738 13.1901 98.3488 13.1901ZM93.6816 32.4249H103V14.7864H93.6816V32.4249ZM81.8205 32.4249H91.1388V1.25024L81.8205 5.60799V32.4249ZM76.8314 13.3657C73.9024 10.4606 68.7202 10.6362 68.7202 10.6362C68.7202 10.6362 63.5219 10.4606 60.6089 13.3657C57.6799 16.2709 57.9052 18.777 57.9052 21.762C57.9052 24.747 57.6799 27.2371 60.6089 30.1423C63.538 33.0474 68.7202 32.8718 68.7202 32.8718C68.7202 32.8718 73.9185 33.0474 76.8314 30.1423C79.7605 27.2371 79.5352 24.747 79.5352 21.762C79.5191 18.761 79.7444 16.2549 76.8314 13.3657ZM70.4261 24.8427C70.4261 25.4174 70.1364 26.838 68.7041 26.838C67.2718 26.838 66.9821 25.4174 66.9821 24.8427V18.3939C66.9821 17.0052 68.1569 16.654 68.7041 16.654C69.2513 16.654 70.4261 16.9892 70.4261 18.3939V24.8427ZM53.3346 13.3657C50.4055 10.4606 45.2233 10.6362 45.2233 10.6362C45.2233 10.6362 40.0411 10.4606 37.1121 13.3657C36.8063 13.669 36.5166 13.9883 36.2591 14.3235C30.1113 9.5986 24.5911 6.90094 19.8274 4.57043V1.2662L16.2063 2.95822C7.45129 -0.569481 1.88285 0.0530559 0.547068 2.97418C0.547068 2.97418 -3.46028 8.20986 10.493 20.6606V32.4249H19.8113V27.8596C18.7652 27.1892 17.7191 26.4709 16.6891 25.6887C14.3072 23.9009 12.2794 22.2409 10.5091 20.6765V15.7282C12.6174 18.0747 15.4177 20.7404 19.1032 23.7573L19.8274 24.3319V19.5751C19.8274 18.4737 20.101 16.67 21.5655 16.67C23.03 16.67 23.2714 17.7714 23.2714 19.0643V26.838C26.1683 28.7855 29.2744 30.3657 32.5575 31.5629V16.5742C32.5575 13.5892 30.401 10.6042 26.0235 10.6042C23.4807 10.5883 21.1149 11.9132 19.8274 14.1V5.4324C26.5707 8.76855 33.33 12.8549 35.905 14.7385C34.2635 17.069 34.4083 19.2239 34.4083 21.7141C34.4083 24.6991 34.183 27.1892 37.1121 30.0944C40.0411 32.9995 45.2233 32.824 45.2233 32.824C45.2233 32.824 50.4216 32.9995 53.3346 30.0944C56.2636 27.1892 56.0222 24.6991 56.0222 21.7141C56.0222 18.761 56.2636 16.2549 53.3346 13.3657ZM10.493 5.60799V15.7122C2.65535 7.01268 4.23254 3.58076 4.82801 3.08592C7.00066 1.2662 10.8632 1.80892 15.1924 3.42113L10.493 5.60799ZM46.9453 24.8427C46.9453 25.4174 46.6557 26.838 45.2233 26.838C43.791 26.838 43.5013 25.4174 43.5013 24.8427V18.3939C43.5013 17.0052 44.6761 16.654 45.2233 16.654C45.7705 16.654 46.9453 16.9892 46.9453 18.3939V24.8427Z" fill="#737373"/>
    </symbol>

    <symbol id="logo2" width="84" height="59" viewBox="0 0 84 59" fill="none" xmlns="http://www.w3.org/2000/svg">
    <path d="M0.5 0.995234H13.1121V35.0099C13.1121 40.4046 15.5437 43.6154 17.5215 44.9519C15.4627 46.761 9.22148 48.3582 4.52031 44.4955C1.76445 42.2137 0.5 38.4162 0.5 34.8795V0.995234ZM79.2689 29.2729V25.6872H83.1272V13.1701H78.8961C77.2588 5.62396 70.5961 0.017334 62.6365 0.017334C53.4611 0.017334 45.9879 7.51457 45.9879 16.7557V45.9624C48.5816 46.3372 51.7266 45.9135 54.3689 43.6806C57.141 41.3988 58.3893 37.6176 58.3893 34.0646V32.9726H64.6791V20.4555H58.3893V16.6579C58.3893 11.0187 66.8514 11.0187 66.8514 16.6579V29.224C66.8514 38.4488 74.3084 45.9624 83.5 45.9624V33.4941C81.1494 33.4941 79.2689 31.5872 79.2689 29.2729ZM31.5602 13.1375V31.5546C31.5602 34.0646 27.702 34.0646 27.702 31.5546V13.1375H15.252V34.7654C15.252 38.6444 16.5488 43.5665 22.5469 45.18C28.5449 46.7773 31.9816 43.4524 31.9816 43.4524C31.6412 45.6364 29.6311 47.2499 26.324 47.5759C23.8113 47.8367 20.6178 46.9892 19.0291 46.3046V57.7624C23.098 58.9847 27.3777 59.3596 31.6088 58.5284C39.2441 57.0452 44.0588 50.64 44.0588 42.0996V13.056H31.5602V13.1375Z" fill="#737373"/>
    </symbol>

    <symbol id="logo3" width="102" height="75" viewBox="0 0 102 75" fill="none" xmlns="http://www.w3.org/2000/svg">
    <path d="M102 0.145752C89.1225 8.82826 87.7519 15.1296 86.6362 17.0572C85.5684 19.0334 84.7716 26.825 82.9228 30.5993C81.0581 34.4222 74.2847 37.4352 72.3881 38.6987C70.5234 39.9622 67.8778 44.8704 65.7103 49.0982C48.4819 48.3855 39.0309 55.3833 24.4003 64.2602C29.0859 62.6889 31.3012 61.555 31.3012 61.555C46.3144 55.7235 53.5022 50.4913 76.1016 53.5853C76.2769 53.5853 76.4044 53.6825 76.5478 53.7149C77.1694 54.0712 77.3925 54.8326 77.0419 55.4643L68.4516 70.9827C68.0531 71.744 67.2084 72.149 66.3637 71.9708C46.155 68.1155 30.2016 74.7732 15.5391 74.9838C3.84094 75.1619 0 69.5572 0 69.298C0 69.1198 0.095625 69.0226 0.270938 69.0226C0.270938 69.0226 6.375 69.0226 16.7025 66.5442C28.4325 43.8175 38.8875 35.8639 50.2669 35.8639C50.2669 35.8639 61.6941 35.8639 64.7062 45.8909C68.34 39.46 69.2166 37.9211 69.2166 37.9211C70.0612 36.3985 74.7947 25.4157 82.9866 15.0162C91.1944 4.64899 97.3941 2.0734 102 0.145752Z" fill="#737373"/>
    </symbol>

    <symbol id="logo4" width="103" height="43" viewBox="0 0 103 43" fill="none" xmlns="http://www.w3.org/2000/svg">
    <path d="M26.5557 3.79318L19.5871 5.25682L19.5549 27.9114C19.5549 32.0955 22.7415 34.8 26.9741 34.8C29.3238 34.8 31.0458 34.3705 31.9954 33.8614V28.4841C31.078 28.85 26.5718 30.1546 26.5718 25.9864V15.9318H31.9954V9.91818H26.5718L26.5557 3.79318ZM40.8952 12.0023L40.4607 9.91818H34.2807V34.2909H41.4102V17.8886C43.1001 15.6932 45.9487 16.1227 46.866 16.4091V9.91818C45.9004 9.58409 42.569 8.96364 40.8952 12.0023ZM55.7498 0.5L48.5719 2.01136V7.77045L55.7498 6.25909V0.5ZM7.22709 17.0932C7.22709 15.9955 8.16053 15.5659 9.65725 15.55C11.8299 15.55 14.598 16.2023 16.7707 17.3636V10.7136C14.4049 9.79091 12.0391 9.425 9.67334 9.425C3.87959 9.425 0.0170898 12.4159 0.0170898 17.4114C0.0170898 25.2386 10.8804 23.9659 10.8804 27.3386C10.8804 28.6432 9.73772 29.0727 8.14443 29.0727C5.77865 29.0727 2.72084 28.1023 0.322871 26.8136V33.1773C2.97834 34.3068 5.666 34.7841 8.12834 34.7841C14.0669 34.7841 18.1547 32.2705 18.1547 27.1796C18.1547 18.7636 7.22709 20.275 7.22709 17.0932ZM103.001 22.3909C103.001 15.1523 99.4604 9.44091 92.6688 9.44091C85.8773 9.44091 81.7412 15.1523 81.7412 22.3432C81.7412 30.8545 86.6176 34.7841 93.5701 34.7841C96.9819 34.7841 99.5408 34.0205 101.488 32.9545V27.6409C99.5408 28.6114 97.3038 29.2 94.4713 29.2C91.6871 29.2 89.2409 28.2295 88.919 24.9205H102.904C102.937 24.5545 103.001 23.075 103.001 22.3909ZM88.8546 19.7182C88.8546 16.5364 90.8341 15.2 92.6205 15.2C94.3748 15.2 96.2416 16.5364 96.2416 19.7182H88.8546ZM70.6848 9.44091C67.8844 9.44091 66.0819 10.7455 65.0841 11.6523L64.714 9.90227H58.4213V42.4841L65.5669 40.9886L65.583 33.0023C66.613 33.75 68.1419 34.7841 70.6365 34.7841C75.7543 34.7841 80.4215 31.0932 80.4215 22.1205C80.4376 13.9114 75.706 9.44091 70.6848 9.44091ZM68.9788 28.9296C67.3051 28.9296 66.3073 28.325 65.6152 27.5932L65.5669 17.0932C66.3073 16.2818 67.3373 15.6932 68.9788 15.6932C71.586 15.6932 73.3885 18.5886 73.3885 22.2795C73.4046 26.0818 71.6343 28.9296 68.9788 28.9296ZM48.588 34.2909H55.7658V9.91818H48.588V34.2909Z" fill="#737373"/>
    </symbol>

    <symbol id="logo5" width="105" height="63" viewBox="0 0 105 63" fill="none" xmlns="http://www.w3.org/2000/svg">
    <path d="M29.8872 22.9887C29.7706 26.6268 31.6044 28.2378 31.6497 29.261C31.6281 29.4692 31.5566 29.6693 31.441 29.8445C31.3255 30.0197 31.1693 30.165 30.9856 30.2681L28.912 31.7072C28.6437 31.8938 28.3274 32.0007 28 32.0156C27.9304 32.0124 26.6733 32.3096 24.6824 27.9021C23.4677 29.4055 21.9223 30.6133 20.1643 31.4332C18.4063 32.2531 16.4824 32.6633 14.54 32.6324C11.9027 32.7754 4.75553 31.1483 5.12326 23.6039C4.86569 17.4553 10.6408 13.6357 16.6135 13.9585C17.7636 13.9618 20.1125 14.018 24.2256 14.9656V12.4567C24.6613 8.20668 21.8443 4.90911 16.9666 5.40383C16.5778 5.40543 13.8239 5.32352 9.54083 7.02771C8.34855 7.57061 8.19628 7.48067 7.79939 7.48067C6.59902 7.48067 7.0931 4.03051 7.32313 3.59362C8.16712 2.56564 13.1322 0.646211 18.005 0.673517C21.2631 0.387814 24.5037 1.38483 27.0264 3.44906C28.0519 4.5864 28.8343 5.91801 29.3262 7.3635C29.8182 8.80898 30.0096 10.3383 29.8889 11.8592L29.8872 22.9887ZM15.8877 28.1912C21.1412 28.1157 23.3654 24.9836 23.8724 23.2971C24.2709 21.6828 24.2045 20.6613 24.2045 18.8961C22.638 18.5234 20.3831 18.117 17.796 18.1138C15.3418 17.9307 10.8595 19.0181 11.0344 23.2955C10.8335 25.9923 12.8358 28.339 15.8877 28.1912ZM43.5757 31.8936C42.3024 32.0092 41.7095 31.1129 41.5216 30.2279L33.4543 3.78155C33.2972 3.33502 33.1935 2.87403 33.1433 2.40341C33.1136 2.20939 33.1627 2.01158 33.28 1.85346C33.3972 1.69535 33.573 1.58985 33.7686 1.56015C33.8075 1.55372 33.4236 1.56015 37.373 1.56015C38.7953 1.4188 39.2586 2.5287 39.406 3.2258L45.1924 25.8462L50.5641 3.2258C50.65 2.70859 51.0404 1.44771 52.6376 1.58103H55.4175C55.769 1.55212 57.2172 1.50072 57.4715 3.24668L62.8854 26.1562L68.8581 3.24668C68.9358 2.89652 69.2987 1.42041 70.9122 1.58103H74.1067C74.2444 1.56015 75.1029 1.45093 74.9571 2.95916C74.8875 3.25631 75.5095 1.24694 66.412 30.2488C66.2257 31.1338 65.6312 32.0301 64.3579 31.9144H61.3302C59.558 32.0992 59.3037 30.3628 59.2761 30.1878L53.9044 8.1617L48.5943 30.1653C48.5684 30.3404 48.314 32.0767 46.5402 31.892H43.5757V31.8936ZM87.8778 32.7979C86.9252 32.7995 82.3829 32.7497 78.5858 30.8238C78.2076 30.665 77.8854 30.3984 77.6602 30.0579C77.4349 29.7173 77.3167 29.3181 77.3206 28.9108V27.1841C77.3206 25.8269 78.325 26.0758 78.751 26.2381C80.3775 26.8902 81.4207 27.3849 83.4181 27.78C89.3551 28.9895 91.9665 27.4106 92.6064 27.0605C94.7366 25.806 94.9051 22.9357 93.4568 21.4467C91.7591 20.0349 90.9492 19.9819 84.8501 18.0737C84.0985 17.8665 77.771 15.8876 77.7564 9.66352C77.6576 5.12756 81.8143 0.639785 89.0182 0.676728C91.0707 0.675122 96.5396 1.3401 98.0202 3.18564C98.2389 3.52134 98.3474 3.91647 98.3312 4.31642V5.9403C98.3312 6.65346 98.0688 7.01004 97.5423 7.01004C96.2933 6.87191 94.0773 5.2159 89.5787 5.28336C88.4626 5.22554 83.1168 5.42953 83.3565 9.29409C83.2869 12.3395 87.6672 13.4815 88.1677 13.6132C94.074 15.3752 96.0487 15.6676 98.3928 18.3644C101.169 21.9382 99.6725 26.1224 99.0975 27.2693C96.0066 33.291 88.0138 32.8011 87.8778 32.7979ZM94.3899 49.6407C83.0455 57.948 66.5772 62.3699 52.5162 62.3699C33.5435 62.494 15.2103 55.5768 1.12039 42.9781C0.0625718 42.032 0.995656 40.7358 2.28189 41.457C17.9118 50.322 35.6081 54.9799 53.6145 54.9685C67.0611 54.897 80.3611 52.1923 92.7505 47.0097C94.6588 46.2066 96.2771 48.2625 94.3899 49.6407ZM99.1185 44.2936C97.6671 42.4432 89.5155 43.4294 85.8658 43.8615C84.7659 43.9852 84.5796 43.0391 85.5758 42.3404C92.0669 37.8157 102.728 39.1119 103.952 40.633C105.175 42.1541 103.62 52.7455 97.5439 57.8051C96.6108 58.5873 95.7183 58.1745 96.133 57.1465C97.5002 53.7333 100.57 46.1455 99.1185 44.2936Z" fill="#737373"/>
    </symbol>

    <symbol id="logo6" width="77" height="73" viewBox="0 0 77 73" fill="none" xmlns="http://www.w3.org/2000/svg">
    <path d="M67.926 28.1614C65.531 28.1614 63.4234 29.1556 61.8747 30.7111C56.1747 26.7503 48.4949 24.2006 39.9848 23.928L44.4075 3.91556L58.4898 7.09061C58.4898 10.5543 61.2999 13.3766 64.7486 13.3766C68.2613 13.3766 71.0873 10.4741 71.0873 7.01043C71.0873 3.54674 68.2772 0.644287 64.7486 0.644287C62.2898 0.644287 60.1663 2.1356 59.1125 4.17213L43.5613 0.70843C42.7789 0.499966 42.0125 1.06121 41.805 1.84696L36.9512 23.912C28.505 24.2648 20.905 26.8144 15.189 30.7752C13.6403 29.1556 11.4529 28.1614 9.0579 28.1614C0.18059 28.1614 -2.72529 40.124 5.4016 44.2131C5.1142 45.4799 4.98647 46.8269 4.98647 48.1739C4.98647 61.6118 20.0587 72.5 38.5638 72.5C57.1487 72.5 72.2209 61.6118 72.2209 48.1739C72.2209 46.8269 72.0772 45.4158 71.726 44.149C79.6932 40.0438 76.7554 28.1614 67.926 28.1614ZM18.2865 45.063C18.2865 41.5351 21.0966 38.6968 24.6251 38.6968C28.0739 38.6968 30.884 41.5191 30.884 45.063C30.884 48.5267 28.0739 51.349 24.6251 51.349C21.1125 51.365 18.2865 48.5267 18.2865 45.063ZM52.5024 60.0563C46.6907 65.8933 30.2932 65.8933 24.4814 60.0563C23.8428 59.4951 23.8428 58.5008 24.4814 57.8594C25.0403 57.2982 26.0302 57.2982 26.589 57.8594C31.0276 62.4296 45.7487 62.5098 50.3789 57.8594C50.9377 57.2982 51.9276 57.2982 52.4865 57.8594C53.1411 58.5008 53.1411 59.4951 52.5024 60.0563ZM52.3747 51.365C48.926 51.365 46.1159 48.5427 46.1159 45.079C46.1159 41.5512 48.926 38.7129 52.3747 38.7129C55.8873 38.7129 58.7134 41.5351 58.7134 45.079C58.6974 48.5267 55.8873 51.365 52.3747 51.365Z" fill="#737373"/>
    </symbol>

    <symbol id="location" width="73" height="72" viewBox="0 0 73 72" fill="none" xmlns="http://www.w3.org/2000/svg">
    <path d="M29.5 42C37.4967 42 44 35.721 44 28C44 20.279 37.4967 14 29.5 14C21.5032 14 15 20.279 15 28C15 35.721 21.5032 42 29.5 42ZM29.5 21C33.4984 21 36.75 24.1395 36.75 28C36.75 31.8605 33.4984 35 29.5 35C25.5016 35 22.25 31.8605 22.25 28C22.25 24.1395 25.5016 21 29.5 21Z" fill="#D0A144"/>
    <path d="M27.4338 70.3403C28.0367 70.7693 28.7591 71 29.5 71C30.2409 71 30.9633 70.7693 31.5662 70.3403C32.6492 69.577 58.103 51.2624 57.9997 28.4002C57.9997 12.7411 45.214 0 29.5 0C13.786 0 1.00031 12.7411 1.00031 28.3825C0.897002 51.2624 26.3508 69.577 27.4338 70.3403ZM29.5 7.10006C41.2882 7.10006 50.8748 16.6532 50.8748 28.418C50.9496 44.173 35.2427 58.3199 29.5 62.9598C23.7609 58.3163 8.05042 44.1659 8.12524 28.4002C8.12524 16.6532 17.7118 7.10006 29.5 7.10006Z" fill="#D0A144"/>
    </symbol>

    <symbol id="telephone" width="72" height="72" viewBox="0 0 72 72" fill="none" xmlns="http://www.w3.org/2000/svg">
    <path d="M55.9295 38.9947C55.578 38.6426 55.1605 38.3632 54.7009 38.1726C54.2413 37.982 53.7487 37.8839 53.2511 37.8839C52.7536 37.8839 52.2609 37.982 51.8013 38.1726C51.3417 38.3632 50.9242 38.6426 50.5727 38.9947L44.534 45.0334C41.7344 44.1999 36.5102 42.3057 33.1992 38.9947C29.8881 35.6836 27.9939 30.4594 27.1605 27.6598L33.1992 21.6211C33.5513 21.2696 33.8306 20.8521 34.0212 20.3925C34.2118 19.9329 34.3099 19.4403 34.3099 18.9427C34.3099 18.4452 34.2118 17.9525 34.0212 17.4929C33.8306 17.0333 33.5513 16.6159 33.1992 16.2643L18.0456 1.11076C17.6941 0.758646 17.2766 0.479298 16.817 0.288701C16.3574 0.0981045 15.8647 0 15.3672 0C14.8696 0 14.377 0.0981045 13.9174 0.288701C13.4578 0.479298 13.0403 0.758646 12.6888 1.11076L2.41467 11.3849C0.975078 12.8245 0.164361 14.802 0.194668 16.8212C0.281801 22.2159 1.71003 40.9533 16.4772 55.7204C31.2443 70.4876 49.9817 71.912 55.3802 72.003H55.4863C57.4865 72.003 59.377 71.215 60.809 69.783L71.0831 59.5088C71.4352 59.1573 71.7146 58.7398 71.9052 58.2802C72.0957 57.8207 72.1938 57.328 72.1938 56.8304C72.1938 56.3329 72.0957 55.8402 71.9052 55.3807C71.7146 54.9211 71.4352 54.5036 71.0831 54.1521L55.9295 38.9947ZM55.4484 64.4224C50.7205 64.3428 34.544 63.0737 21.834 50.3599C9.08224 37.6081 7.84722 21.3749 7.77146 16.7417L15.3672 9.14594L25.164 18.9427L20.2656 23.8411C19.8203 24.2861 19.4929 24.835 19.313 25.4382C19.1331 26.0414 19.1063 26.68 19.2351 27.2961C19.3261 27.7318 21.5498 38.0627 27.8386 44.3515C34.1273 50.6402 44.4583 52.864 44.8939 52.9549C45.5097 53.0874 46.1489 53.0627 46.7527 52.8833C47.3565 52.7039 47.9054 52.3755 48.3489 51.9283L53.2511 47.0299L63.0479 56.8267L55.4484 64.4224Z" fill="#D0A144"/>
    </symbol>

    <symbol id="plane" width="70" height="71" viewBox="0 0 70 71" fill="none" xmlns="http://www.w3.org/2000/svg">
    <path d="M68.3484 1.16199C67.9592 0.759029 67.4674 0.480035 66.9308 0.357809C66.3943 0.235584 65.8354 0.275208 65.3198 0.472024L1.8615 24.4708C1.31422 24.6867 0.84305 25.0706 0.51056 25.5716C0.178071 26.0726 0 26.6669 0 27.2756C0 27.8844 0.178071 28.4787 0.51056 28.9797C0.84305 29.4807 1.31422 29.8646 1.8615 30.0805L29.5524 41.5999L40.6287 70.3984C40.8368 70.9426 41.1935 71.4115 41.6549 71.7473C42.1162 72.0832 42.6619 72.2712 43.2248 72.2883C43.8077 72.2759 44.3733 72.08 44.847 71.7266C45.3207 71.3732 45.6804 70.8787 45.8785 70.3084L68.9542 4.31183C69.1507 3.78108 69.1981 3.20317 69.0909 2.64548C68.9836 2.08779 68.7261 1.5733 68.3484 1.16199ZM43.2248 60.8889L35.1771 39.89L48.9937 25.5207L44.9266 21.291L30.9946 35.7802L10.9187 27.2906L61.4834 8.30162L43.2248 60.8889Z" fill="#D0A144"/>
    </symbol>

    <symbol id="facebook" width="24" height="24" viewBox="0 0 24 24" fill="none" xmlns="http://www.w3.org/2000/svg">
    <path d="M23.04 0H0.96C0.429 0 0 0.429 0 0.96V23.04C0 23.571 0.429 24 0.96 24H23.04C23.571 24 24 23.571 24 23.04V0.96C24 0.429 23.571 0 23.04 0ZM20.268 7.005H18.351C16.848 7.005 16.557 7.719 16.557 8.769V11.082H20.145L19.677 14.703H16.557V24H12.816V14.706H9.687V11.082H12.816V8.412C12.816 5.313 14.709 3.624 17.475 3.624C18.801 3.624 19.938 3.723 20.271 3.768V7.005H20.268Z" fill="#335BF5"/>
    </symbol>

    <symbol id="insta" width="24" height="24" viewBox="0 0 24 24" fill="none" xmlns="http://www.w3.org/2000/svg">
    <path d="M12.0016 5.84744C8.59659 5.84744 5.84859 8.59544 5.84859 12.0004C5.84859 15.4054 8.59659 18.1534 12.0016 18.1534C15.4066 18.1534 18.1546 15.4054 18.1546 12.0004C18.1546 8.59544 15.4066 5.84744 12.0016 5.84744ZM12.0016 15.9994C9.79959 15.9994 8.00259 14.2024 8.00259 12.0004C8.00259 9.79844 9.79959 8.00144 12.0016 8.00144C14.2036 8.00144 16.0006 9.79844 16.0006 12.0004C16.0006 14.2024 14.2036 15.9994 12.0016 15.9994ZM18.4066 4.16144C17.6116 4.16144 16.9696 4.80344 16.9696 5.59844C16.9696 6.39344 17.6116 7.03544 18.4066 7.03544C19.2016 7.03544 19.8436 6.39644 19.8436 5.59844C19.8438 5.40966 19.8068 5.22269 19.7347 5.04824C19.6625 4.87379 19.5567 4.71528 19.4232 4.5818C19.2897 4.44831 19.1312 4.34247 18.9568 4.27034C18.7823 4.19821 18.5954 4.1612 18.4066 4.16144ZM23.9956 12.0004C23.9956 10.3444 24.0106 8.70344 23.9176 7.05044C23.8246 5.13044 23.3866 3.42644 21.9826 2.02244C20.5756 0.615437 18.8746 0.180437 16.9546 0.0874372C15.2986 -0.00556279 13.6576 0.00943725 12.0046 0.00943725C10.3486 0.00943725 8.70759 -0.00556279 7.05459 0.0874372C5.13459 0.180437 3.43059 0.618437 2.02659 2.02244C0.619588 3.42944 0.184588 5.13044 0.0915876 7.05044C-0.0014124 8.70644 0.0135876 10.3474 0.0135876 12.0004C0.0135876 13.6534 -0.0014124 15.2974 0.0915876 16.9504C0.184588 18.8704 0.622588 20.5744 2.02659 21.9784C3.43359 23.3854 5.13459 23.8204 7.05459 23.9134C8.71059 24.0064 10.3516 23.9914 12.0046 23.9914C13.6606 23.9914 15.3016 24.0064 16.9546 23.9134C18.8746 23.8204 20.5786 23.3824 21.9826 21.9784C23.3896 20.5714 23.8246 18.8704 23.9176 16.9504C24.0136 15.2974 23.9956 13.6564 23.9956 12.0004ZM21.3556 19.0744C21.1366 19.6204 20.8726 20.0284 20.4496 20.4484C20.0266 20.8714 19.6216 21.1354 19.0756 21.3544C17.4976 21.9814 13.7506 21.8404 12.0016 21.8404C10.2526 21.8404 6.50259 21.9814 4.92459 21.3574C4.37859 21.1384 3.97059 20.8744 3.55059 20.4514C3.12759 20.0284 2.86359 19.6234 2.64459 19.0774C2.02059 17.4964 2.16159 13.7494 2.16159 12.0004C2.16159 10.2514 2.02059 6.50144 2.64459 4.92344C2.86359 4.37744 3.12759 3.96944 3.55059 3.54944C3.97359 3.12944 4.37859 2.86244 4.92459 2.64344C6.50259 2.01944 10.2526 2.16044 12.0016 2.16044C13.7506 2.16044 17.5006 2.01944 19.0786 2.64344C19.6246 2.86244 20.0326 3.12644 20.4526 3.54944C20.8756 3.97244 21.1396 4.37744 21.3586 4.92344C21.9826 6.50144 21.8416 10.2514 21.8416 12.0004C21.8416 13.7494 21.9826 17.4964 21.3556 19.0744Z" fill="#E61F5A"/>
    </symbol>

    <symbol id="twitter" width="24" height="20" viewBox="0 0 24 20" fill="none" xmlns="http://www.w3.org/2000/svg">
    <path d="M24.0004 2.46548C23.1188 2.85141 22.1594 3.12917 21.1711 3.23735C22.1971 2.61879 22.9655 1.64156 23.332 0.489007C22.3692 1.07022 21.3145 1.47778 20.2146 1.6936C19.7549 1.19488 19.1989 0.797581 18.5813 0.526453C17.9636 0.255325 17.2976 0.116179 16.6247 0.117688C13.902 0.117688 11.7123 2.3573 11.7123 5.10564C11.7123 5.49158 11.7584 5.87752 11.8333 6.24884C7.7565 6.03248 4.12048 4.05601 1.7032 1.0299C1.26274 1.79335 1.03193 2.66261 1.03477 3.54727C1.03477 5.27814 1.902 6.80435 3.22444 7.70195C2.44511 7.6708 1.68402 7.45342 1.00308 7.06749V7.12889C1.00308 9.5527 2.69143 11.5613 4.94161 12.0233C4.51912 12.1347 4.08449 12.1916 3.64797 12.1929C3.32817 12.1929 3.02565 12.1607 2.72024 12.1168C3.34257 14.0933 5.15482 15.5289 7.3128 15.5757C5.62444 16.9177 3.50968 17.7071 1.2134 17.7071C0.801397 17.7071 0.421085 17.6925 0.0263672 17.6457C2.20452 19.0637 4.78891 19.8824 7.5721 19.8824C16.6074 19.8824 21.5514 12.2864 21.5514 5.69332C21.5514 5.47696 21.5514 5.2606 21.537 5.04424C22.4936 4.33377 23.332 3.45371 24.0004 2.46548Z" fill="#21A6DF"/>
    </symbol>

    <symbol id="youtube" width="24" height="18" viewBox="0 0 24 18" fill="none" xmlns="http://www.w3.org/2000/svg">
    <path d="M23.4699 2.93166C23.3335 2.3987 23.0663 1.91276 22.6951 1.52249C22.324 1.13221 21.8619 0.851291 21.355 0.707834C19.4884 0.176636 11.9879 0.176636 11.9879 0.176636C11.9879 0.176636 4.48729 0.176636 2.62071 0.707834C2.11385 0.851291 1.65172 1.13221 1.28057 1.52249C0.90941 1.91276 0.642248 2.3987 0.50582 2.93166C0.157288 4.93335 -0.0118455 6.96501 0.000644257 8.99993C-0.0118455 11.0348 0.157288 13.0665 0.50582 15.0682C0.642248 15.6012 0.90941 16.0871 1.28057 16.4774C1.65172 16.8676 2.11385 17.1486 2.62071 17.292C4.48729 17.8232 11.9879 17.8232 11.9879 17.8232C11.9879 17.8232 19.4884 17.8232 21.355 17.292C21.8619 17.1486 22.324 16.8676 22.6951 16.4774C23.0663 16.0871 23.3335 15.6012 23.4699 15.0682C23.8184 13.0665 23.9876 11.0348 23.9751 8.99993C23.9876 6.96501 23.8184 4.93335 23.4699 2.93166ZM9.59041 12.7813V5.21852L15.8152 8.99993L9.59041 12.7813Z" fill="#E42F08"/>
    </symbol>

    <symbol id="burger" width="24" height="14" viewBox="0 0 24 14" fill="none" xmlns="http://www.w3.org/2000/svg">
    <path d="M0.571289 0H23.4284V2.28571H0.571289V0ZM6.28557 5.71429H23.4284V8H6.28557V5.71429ZM13.4284 11.4286H23.4284V13.7143H13.4284V11.4286Z" fill="#737373"/>
    </symbol>

</svg>